<svg id="Capa_1" enable-background="new 0 0 512 512" height="512" viewBox="0 0 512 512" width="512" xmlns="http://www.w3.org/2000/svg"><g><g><path d="m401.498 234.952c43.31 0 78.545-35.235 78.545-78.544 0-43.096-34.888-78.196-77.903-78.542-7.691-21.404-21.737-40.515-39.996-54.272-20.485-15.436-44.906-23.594-70.622-23.594-20.773 0-41.19 5.498-59.044 15.899-15.236 8.876-28.332 21.127-38.219 35.691-7.638-3.527-15.972-5.367-24.466-5.367-21.982 0-42.228 12.633-52.104 31.975-2.407-.223-4.81-.336-7.186-.336-43.31 0-78.545 35.235-78.545 78.545s35.235 78.544 78.545 78.544h38.932c4.142 0 7.5-3.358 7.5-7.5s-3.358-7.5-7.5-7.5h-38.932c-35.039 0-63.545-28.506-63.545-63.544s28.506-63.545 63.545-63.545c3.46 0 6.999.297 10.517.883 3.509.59 6.948-1.378 8.229-4.698 6.421-16.642 22.715-27.823 40.545-27.823 8.178 0 16.153 2.293 23.063 6.633 2.697 1.605 7.561 1.772 10.441-2.529 18.39-31.043 52.197-50.328 88.224-50.328 22.433 0 43.731 7.114 61.595 20.573 17.287 13.024 30.244 31.541 36.486 52.138 1.958 4.711 5.818 5.791 11.895 5.151 35.039 0 63.545 28.506 63.545 63.545s-28.506 63.544-63.545 63.544h-76.717v-14.353c-1.384-6.719 20.233-23.733 23.643-28.261 4.939-4.939 7.66-11.506 7.66-18.491v-55.106c11.337-3.264 19.657-13.723 19.657-26.096 0-14.975-12.183-27.157-27.157-27.157s-27.158 12.183-27.158 27.157c0 12.373 8.321 22.832 19.658 26.096v55.106c0 2.979-1.16 5.778-3.266 7.885-8.619 9.886-28.978 23.545-28.036 38.868v14.353h-46.282v-38.563c0-4.142-3.358-7.5-7.5-7.5s-7.5 3.358-7.5 7.5v38.563h-56.21v-20.729c0-3.287 1.28-6.377 3.604-8.702l21.199-21.199c2.929-2.929 2.929-7.678 0-10.606-2.929-2.929-7.678-2.929-10.606 0l-21.199 21.199c-5.158 5.158-7.998 12.015-7.998 19.309v62.017h-54.408c-17.458 0-31.661 14.203-31.661 31.66v187.439c0 17.458 14.203 31.66 31.661 31.66h266.236c17.458 0 31.661-14.203 31.661-31.66v-187.44c0-17.458-14.203-31.66-31.661-31.66h-64.337v-26.289h76.717zm-65.073-157.307c0-6.704 5.454-12.157 12.158-12.157s12.157 5.454 12.157 12.157-5.454 12.158-12.157 12.158-12.158-5.454-12.158-12.158zm-144.135 157.307h56.21v26.289h-56.21zm196.828 41.288c9.187 0 16.661 7.474 16.661 16.66v187.44c0 9.187-7.474 16.66-16.661 16.66h-266.236c-9.187 0-16.661-7.474-16.661-16.66v-187.44c0-9.187 7.474-16.66 16.661-16.66h186.899v65.874c0 4.142 3.358 7.5 7.5 7.5s7.5-3.358 7.5-7.5v-37.675h51.358c.13 0 .235.105.235.235v75.114h-240.748v-75.114c0-.129.105-.235.235-.235h145.953c4.142 0 7.5-3.358 7.5-7.5s-3.358-7.5-7.5-7.5h-145.953c-8.401 0-15.235 6.834-15.235 15.235v82.614 82.614c0 8.4 6.834 15.235 15.235 15.235h240.277c8.401 0 15.235-6.834 15.235-15.235v-82.614-82.614c0-8.4-6.834-15.235-15.235-15.235h-51.358v-13.199zm-253.492 118.548h240.748v75.114c0 .132-.104.235-.235.235h-240.278c-.132 0-.235-.103-.235-.235zm174.155-133.548h-46.281v-26.289h46.281z"/><path d="m242.836 334.614h-78.63c-4.142 0-7.5 3.358-7.5 7.5s3.358 7.5 7.5 7.5h78.63c4.142 0 7.5-3.358 7.5-7.5s-3.357-7.5-7.5-7.5z"/><circle cx="347.56" cy="342.114" r="7.384"/><circle cx="285.198" cy="342.114" r="7.384"/><path d="m164.206 439.055h78.63c4.142 0 7.5-3.358 7.5-7.5s-3.358-7.5-7.5-7.5h-78.63c-4.142 0-7.5 3.358-7.5 7.5s3.358 7.5 7.5 7.5z"/><circle cx="347.56" cy="431.555" r="7.384"/><circle cx="285.198" cy="431.555" r="7.384"/><circle cx="317.281" cy="431.555" r="7.384"/><path d="m176.238 132.017h53.666c3.264 11.337 13.723 19.657 26.096 19.657 14.975 0 27.158-12.183 27.158-27.157s-12.183-27.158-27.158-27.158c-12.373 0-22.832 8.321-26.096 19.658h-53.666c-6.749 0-13.094 2.628-17.866 7.4l-26.107 26.107c-4.066-2.43-8.815-3.831-13.886-3.831-14.975 0-27.158 12.183-27.158 27.158s12.183 27.157 27.158 27.157 27.158-12.183 27.158-27.157c0-4.46-1.088-8.668-3.001-12.385l26.443-26.443c1.938-1.939 4.517-3.006 7.259-3.006zm79.762-19.658c6.704 0 12.158 5.454 12.158 12.158s-5.454 12.157-12.158 12.157-12.158-5.454-12.158-12.157 5.454-12.158 12.158-12.158zm-137.621 73.649c-6.704 0-12.158-5.454-12.158-12.157s5.454-12.158 12.158-12.158 12.158 5.454 12.158 12.158-5.454 12.157-12.158 12.157z"/></g></g></svg>