<svg id="Layer_1" enable-background="new 0 0 512.004 512.004" height="512" viewBox="0 0 512.004 512.004" width="512" xmlns="http://www.w3.org/2000/svg"><g><path d="m26.137 493.804c0 9.865 8.335 18.2 18.2 18.2h154.521c9.865 0 18.2-8.335 18.2-18.2v-35.315c0-3.965-1.363-7.671-3.614-10.7 2.251-3.029 3.614-6.734 3.614-10.699v-35.316c0-3.965-1.363-7.671-3.614-10.7 2.251-3.029 3.614-6.735 3.614-10.7v-35.315c0-9.865-8.335-18.2-18.2-18.2h-69.761v-29.032c0-2.895 2.355-5.249 5.25-5.249h243.311c2.895 0 5.25 2.354 5.25 5.249v29.032h-69.761c-9.865 0-18.2 8.335-18.2 18.2v35.315c0 3.965 1.363 7.671 3.614 10.7-2.251 3.029-3.614 6.734-3.614 10.7v35.316c0 3.965 1.363 7.671 3.614 10.699-2.251 3.029-3.614 6.735-3.614 10.7v35.315c0 9.865 8.335 18.2 18.2 18.2h60.513c4.143 0 7.5-3.357 7.5-7.5s-3.357-7.5-7.5-7.5h-60.513c-1.645 0-3.2-1.556-3.2-3.2v-35.315c0-1.645 1.556-3.2 3.2-3.2h154.521c1.645 0 3.2 1.556 3.2 3.2v35.315c0 1.645-1.556 3.2-3.2 3.2h-59.008c-4.143 0-7.5 3.357-7.5 7.5s3.357 7.5 7.5 7.5h59.008c9.865 0 18.2-8.335 18.2-18.2v-35.315c0-3.965-1.363-7.671-3.614-10.7 2.251-3.029 3.614-6.734 3.614-10.699v-35.316c0-3.965-1.363-7.671-3.614-10.7 2.251-3.029 3.614-6.735 3.614-10.7v-35.315c0-9.865-8.335-18.2-18.2-18.2h-69.76v-29.032c0-11.165-9.084-20.249-20.25-20.249h-114.156v-36.496c41.905-2.529 77.14-26.219 96.641-59.468 2.096-3.572.897-8.168-2.676-10.264-3.573-2.095-8.168-.897-10.264 2.676-2.752 4.693-5.853 9.118-9.242 13.27-5.668-5.268-11.748-9.935-18.174-13.958 3.927-14.007 6.255-29.302 6.813-45.177h34.787c-.343 4.857-1.011 9.688-2.013 14.434-.854 4.054 1.737 8.032 5.79 8.888 4.054.849 8.033-1.737 8.888-5.79 1.73-8.201 2.607-16.623 2.607-25.031 0-64.899-52.251-120.662-120.657-120.662-68.568 0-120.658 56.014-120.658 120.658 0 62.027 48.076 116.495 113.158 120.422v36.496h-114.155c-11.166 0-20.25 9.084-20.25 20.249v29.032h-69.76c-9.865 0-18.2 8.335-18.2 18.2v35.315c0 3.965 1.363 7.671 3.614 10.7-2.251 3.029-3.614 6.734-3.614 10.7v35.316c0 3.965 1.363 7.671 3.614 10.699-2.251 3.029-3.614 6.735-3.614 10.7zm444.73-56.715c0 1.645-1.556 3.199-3.2 3.199h-154.521c-1.645 0-3.2-1.555-3.2-3.199v-35.316c0-1.645 1.556-3.199 3.2-3.199h154.521c1.645 0 3.2 1.555 3.2 3.199zm-3.2-95.232c1.645 0 3.2 1.556 3.2 3.2v35.315c0 1.645-1.556 3.2-3.2 3.2h-154.521c-1.645 0-3.2-1.556-3.2-3.2v-35.315c0-1.645 1.556-3.2 3.2-3.2zm-139.979-143.643c-8.533 7.857-18.297 14.254-28.85 18.953 6.862-8.861 12.037-18.854 16.045-29.114 4.484 3.027 8.766 6.416 12.805 10.161zm33.702-85.056h-34.79c-.558-15.876-2.887-31.171-6.814-45.178 6.42-4.02 12.494-8.681 18.157-13.943 13.338 16.373 21.874 36.8 23.447 59.121zm-33.709-70.05c-4.037 3.742-8.316 7.129-12.798 10.155-4.025-10.304-9.225-20.332-16.125-29.216 10.688 4.749 20.446 11.221 28.923 19.061zm-64.179-27.1c15.582 4.176 29.339 21.109 38.134 44.856-11.839 5.678-24.716 9.09-38.134 10.017zm0 69.896c14.968-.903 29.36-4.503 42.652-10.581 3.016 11.662 4.922 24.45 5.445 37.835h-48.097zm0 42.254h48.097c-.523 13.385-2.429 26.173-5.445 37.835-13.292-6.078-27.684-9.678-42.652-10.581zm0 42.277c13.418.926 26.295 4.339 38.135 10.017-8.796 23.747-22.552 40.68-38.135 44.856zm-15-15.023c-14.968.903-29.361 4.503-42.653 10.581-3.016-11.661-4.922-24.449-5.445-37.834h48.098zm0-42.254h-48.098c.523-13.385 2.429-26.174 5.445-37.835 13.292 6.078 27.685 9.678 42.653 10.581zm0-97.15v54.873c-13.418-.926-26.295-4.339-38.135-10.017 8.796-23.747 22.553-40.68 38.135-44.856zm-35.258 8.04c-6.898 8.882-12.097 18.907-16.124 29.215-4.482-3.026-8.761-6.412-12.797-10.155 8.476-7.84 18.233-14.311 28.921-19.06zm-39.185 29.989c5.663 5.262 11.737 9.923 18.157 13.942-3.927 14.008-6.255 29.302-6.814 45.178h-34.789c1.573-22.32 10.11-42.747 23.446-59.12zm-23.446 74.121h34.789c.558 15.876 2.887 31.17 6.814 45.177-6.42 4.02-12.494 8.681-18.157 13.943-13.337-16.372-21.873-36.799-23.446-59.12zm33.71 70.049c4.036-3.742 8.316-7.128 12.798-10.155 4.036 10.331 9.238 20.35 16.124 29.215-10.689-4.748-20.446-11.22-28.922-19.06zm26.044-17.755c11.84-5.678 24.717-9.09 38.135-10.017v54.873c-15.582-4.176-29.339-21.11-38.135-44.856zm-169.23 164.606c0-1.645 1.556-3.2 3.2-3.2h154.521c1.645 0 3.2 1.556 3.2 3.2v35.315c0 1.645-1.556 3.2-3.2 3.2h-154.521c-1.645 0-3.2-1.556-3.2-3.2zm0 56.714c0-1.645 1.556-3.199 3.2-3.199h154.521c1.645 0 3.2 1.555 3.2 3.199v35.316c0 1.645-1.556 3.199-3.2 3.199h-154.521c-1.645 0-3.2-1.555-3.2-3.199zm0 56.716c0-1.645 1.556-3.2 3.2-3.2h154.521c1.645 0 3.2 1.556 3.2 3.2v35.315c0 1.645-1.556 3.2-3.2 3.2h-154.521c-1.645 0-3.2-1.556-3.2-3.2z"/><path d="m59.836 483.646h51.697c4.143 0 7.5-3.357 7.5-7.5s-3.357-7.5-7.5-7.5h-51.697c-4.143 0-7.5 3.357-7.5 7.5s3.357 7.5 7.5 7.5z"/><path d="m59.836 426.931h51.697c4.143 0 7.5-3.357 7.5-7.5s-3.357-7.5-7.5-7.5h-51.697c-4.143 0-7.5 3.357-7.5 7.5s3.357 7.5 7.5 7.5z"/><path d="m172.338 426.931h10.941c4.143 0 7.5-3.357 7.5-7.5s-3.357-7.5-7.5-7.5h-10.941c-4.143 0-7.5 3.357-7.5 7.5s3.357 7.5 7.5 7.5z"/><path d="m59.836 370.216h51.697c4.143 0 7.5-3.357 7.5-7.5s-3.357-7.5-7.5-7.5h-51.697c-4.143 0-7.5 3.357-7.5 7.5s3.357 7.5 7.5 7.5z"/><path d="m172.338 370.216h10.941c4.143 0 7.5-3.357 7.5-7.5s-3.357-7.5-7.5-7.5h-10.941c-4.143 0-7.5 3.357-7.5 7.5s3.357 7.5 7.5 7.5z"/><path d="m172.338 483.646h10.941c4.143 0 7.5-3.357 7.5-7.5s-3.357-7.5-7.5-7.5h-10.941c-4.143 0-7.5 3.357-7.5 7.5s3.357 7.5 7.5 7.5z"/><path d="m140.078 426.931h10.942c4.143 0 7.5-3.357 7.5-7.5s-3.357-7.5-7.5-7.5h-10.942c-4.143 0-7.5 3.357-7.5 7.5s3.358 7.5 7.5 7.5z"/><path d="m140.078 370.216h10.942c4.143 0 7.5-3.357 7.5-7.5s-3.357-7.5-7.5-7.5h-10.942c-4.143 0-7.5 3.357-7.5 7.5s3.358 7.5 7.5 7.5z"/><path d="m140.078 483.646h10.942c4.143 0 7.5-3.357 7.5-7.5s-3.357-7.5-7.5-7.5h-10.942c-4.143 0-7.5 3.357-7.5 7.5s3.358 7.5 7.5 7.5z"/><path d="m328.646 468.646c-4.143 0-7.5 3.357-7.5 7.5s3.357 7.5 7.5 7.5h51.697c4.143 0 7.5-3.357 7.5-7.5s-3.357-7.5-7.5-7.5z"/><path d="m380.344 411.931h-51.697c-4.143 0-7.5 3.357-7.5 7.5s3.357 7.5 7.5 7.5h51.697c4.143 0 7.5-3.357 7.5-7.5s-3.358-7.5-7.5-7.5z"/><path d="m452.09 411.931h-10.942c-4.143 0-7.5 3.357-7.5 7.5s3.357 7.5 7.5 7.5h10.942c4.143 0 7.5-3.357 7.5-7.5s-3.358-7.5-7.5-7.5z"/><path d="m328.646 370.216h51.697c4.143 0 7.5-3.357 7.5-7.5s-3.357-7.5-7.5-7.5h-51.697c-4.143 0-7.5 3.357-7.5 7.5s3.358 7.5 7.5 7.5z"/><path d="m441.147 370.216h10.942c4.143 0 7.5-3.357 7.5-7.5s-3.357-7.5-7.5-7.5h-10.942c-4.143 0-7.5 3.357-7.5 7.5s3.358 7.5 7.5 7.5z"/><path d="m452.09 483.646c4.143 0 7.5-3.357 7.5-7.5s-3.357-7.5-7.5-7.5h-10.942c-4.143 0-7.5 3.357-7.5 7.5s3.357 7.5 7.5 7.5z"/><path d="m419.83 411.931h-10.941c-4.143 0-7.5 3.357-7.5 7.5s3.357 7.5 7.5 7.5h10.941c4.143 0 7.5-3.357 7.5-7.5s-3.357-7.5-7.5-7.5z"/><path d="m408.889 370.216h10.941c4.143 0 7.5-3.357 7.5-7.5s-3.357-7.5-7.5-7.5h-10.941c-4.143 0-7.5 3.357-7.5 7.5s3.357 7.5 7.5 7.5z"/><path d="m408.889 483.646h10.941c4.143 0 7.5-3.357 7.5-7.5s-3.357-7.5-7.5-7.5h-10.941c-4.143 0-7.5 3.357-7.5 7.5s3.357 7.5 7.5 7.5z"/></g></svg>